<?xml version="1.0" standalone="no"?><!DOCTYPE svg PUBLIC "-//W3C//DTD SVG 1.1//EN" "http://www.w3.org/Graphics/SVG/1.1/DTD/svg11.dtd"><svg t="1587047537528" class="icon" viewBox="0 0 1024 1024" version="1.1" xmlns="http://www.w3.org/2000/svg" p-id="12418" xmlns:xlink="http://www.w3.org/1999/xlink" width="48" height="48"><defs><style type="text/css"></style></defs><path d="M956.1240653818753 579.0559211537523h-377.4918801217032v377.55208924331106c0 36.792317387069836-29.839867873102275 66.60264870994936-66.63332128133455 66.60264870994936-36.792317387069836 0-66.63218526017215-29.81033132287954-66.63218526017215-66.60264870994936v-377.55208924331106h-377.49415216402804c-36.822989958455004 0-66.63218526017215-29.81033132287954-66.63218526017215-66.60264870994936 0-36.77868513312089 29.812603365204367-66.60264870994936 66.63218526017215-66.60264870994936h377.4918801217032v-377.55208924331106c0-36.77868513312089 29.839867873102275-66.60264870994936 66.63218526017215-66.60264870994936 36.793453408232246 0 66.63332128133455 29.825099597990917 66.63332128133455 66.60264870994936v377.55322526447344h377.4918801217032c36.822989958455004 0 66.63332128133455 29.822827555666088 66.63332128133455 66.60037666762456-0.0011360211624130007 36.792317387069836-29.81033132287954 66.60037666762456-66.63332128133455 66.60037666762456z" p-id="12419"></path></svg>