<?xml version="1.0" standalone="no"?><!DOCTYPE svg PUBLIC "-//W3C//DTD SVG 1.1//EN" "http://www.w3.org/Graphics/SVG/1.1/DTD/svg11.dtd"><svg t="1589514488503" class="icon" viewBox="0 0 1110 1024" version="1.1" xmlns="http://www.w3.org/2000/svg" p-id="1780" xmlns:xlink="http://www.w3.org/1999/xlink" width="216.796875" height="200"><defs><style type="text/css"></style></defs><path d="M984.42207117 411.77187213l-52.97975182 52.97975183c-3.61724587 3.61724587-5.4258688 8.59015851-4.89830969 13.63980856a344.68279069 344.68279069 0 0 1 1.58267847 35.34541256c-0.07460409 49.05982521-9.34472818 96.91425792-27.73363712 142.13196003-18.99107214 46.72364317-46.87498354 88.77598834-82.9728347 124.8738395-36.09785117 36.09785117-78.15019634 63.98282866-124.8749056 82.9739008-45.21663602 18.38784285-93.07106759 27.65690083-142.13196004 27.73257103-49.06089131 0.07567019-96.83965383-9.26905913-142.05735481-27.50662656-46.79824839-18.91540195-88.70031815-46.79931335-124.79816931-82.89823062s-63.90715847-78.07452615-82.89823062-124.79923541c-18.31323875-45.14096583-27.58229675-92.9964635-27.50769266-142.05735481s9.34472818-96.91425792 27.73363712-142.13196004c18.99107214-46.72364317 46.87498354-88.77598834 82.97283471-124.8738395 36.09785117-36.09785117 78.07559225-64.05743275 124.8749056-82.9739008 45.21663602-18.38784285 93.07213369-27.65690083 142.13195889-27.73257102 11.90792078 0 23.66343623 0.6032293 35.3454137 1.58267733 5.04858397 0.52755911 10.09823289-1.35673401 13.63980856-4.89830855l52.97975182-52.97975182c4.74803427-4.74803427 2.41185223-12.96197405-4.22047516-14.31870806-147.63349789-32.02871637-308.23003591 9.64527787-422.85536825 124.8749056C45.64026594 371.75516045 47.44888887 663.1032957 229.59862555 841.63472156c179.28492942 175.66768355 467.09148899 174.38662087 645.09642183-3.61724587 114.62533234-114.62533234 155.92310784-274.69324515 124.04573071-422.02619449-1.43240419-6.55665721-9.57067378-8.96850944-14.31870692-4.22047516z" p-id="1781"></path><path d="M989.29408389 141.4036103h-56.71762986c-7.9523584 0-15.49905493 3.40215893-20.36698987 9.22429654L577.65987695 545.5081063 417.24185669 356.11928177c-4.9488672-5.82113813-12.41463147-9.22329707-20.3659904-9.22329707h-56.71862933c-5.43645973 0-8.43895147 5.82113813-5.1117312 9.751856l222.2483808 262.3468896c10.38632533 12.24777067 30.34665493 12.24777067 40.81391252 0l396.29901441-467.9132032c3.32722133-3.85677867 0.32373013-9.6779168-5.1127296-9.6779168z" p-id="1782"></path></svg>