<?xml version="1.0" standalone="no"?><!DOCTYPE svg PUBLIC "-//W3C//DTD SVG 1.1//EN" "http://www.w3.org/Graphics/SVG/1.1/DTD/svg11.dtd"><svg t="1589103761904" class="icon" viewBox="0 0 1024 1024" version="1.1" xmlns="http://www.w3.org/2000/svg" p-id="3245" xmlns:xlink="http://www.w3.org/1999/xlink" width="48" height="48"><defs><style type="text/css"></style></defs><path d="M21.333333 0v1024" p-id="3246"></path><path d="M42.666667 0v1024" p-id="3247"></path><path d="M64 0v1024" p-id="3248"></path><path d="M85.333333 0v1024" p-id="3249"></path><path d="M106.666667 0v1024" p-id="3250"></path><path d="M128 0v1024" p-id="3251"></path><path d="M149.333333 0v1024" p-id="3252"></path><path d="M170.666667 0v1024" p-id="3253"></path><path d="M192 0v1024" p-id="3254"></path><path d="M213.333333 0v1024" p-id="3255"></path><path d="M234.666667 0v1024" p-id="3256"></path><path d="M256 0v1024" p-id="3257"></path><path d="M277.333333 0v1024" p-id="3258"></path><path d="M298.666667 0v1024" p-id="3259"></path><path d="M320 0v1024" p-id="3260"></path><path d="M341.333333 0v1024" p-id="3261"></path><path d="M362.666667 0v1024" p-id="3262"></path><path d="M384 0v1024" p-id="3263"></path><path d="M405.333333 0v1024" p-id="3264"></path><path d="M426.666667 0v1024" p-id="3265"></path><path d="M448 0v1024" p-id="3266"></path><path d="M469.333333 0v1024" p-id="3267"></path><path d="M490.666667 0v1024" p-id="3268"></path><path d="M512 0v1024" p-id="3269"></path><path d="M533.333333 0v1024" p-id="3270"></path><path d="M554.666667 0v1024" p-id="3271"></path><path d="M576 0v1024" p-id="3272"></path><path d="M597.333333 0v1024" p-id="3273"></path><path d="M618.666667 0v1024" p-id="3274"></path><path d="M640 0v1024" p-id="3275"></path><path d="M661.333333 0v1024" p-id="3276"></path><path d="M682.666667 0v1024" p-id="3277"></path><path d="M704 0v1024" p-id="3278"></path><path d="M725.333333 0v1024" p-id="3279"></path><path d="M746.666667 0v1024" p-id="3280"></path><path d="M768 0v1024" p-id="3281"></path><path d="M789.333333 0v1024" p-id="3282"></path><path d="M810.666667 0v1024" p-id="3283"></path><path d="M832 0v1024" p-id="3284"></path><path d="M853.333333 0v1024" p-id="3285"></path><path d="M874.666667 0v1024" p-id="3286"></path><path d="M896 0v1024" p-id="3287"></path><path d="M917.333333 0v1024" p-id="3288"></path><path d="M938.666667 0v1024" p-id="3289"></path><path d="M960 0v1024" p-id="3290"></path><path d="M981.333333 0v1024" p-id="3291"></path><path d="M1002.666667 0v1024M0 21.333333h1024" p-id="3292"></path><path d="M0 42.666667h1024" p-id="3293"></path><path d="M0 64h1024" p-id="3294"></path><path d="M0 85.333333h1024" p-id="3295"></path><path d="M0 106.666667h1024" p-id="3296"></path><path d="M0 128h1024" p-id="3297"></path><path d="M0 149.333333h1024" p-id="3298"></path><path d="M0 170.666667h1024" p-id="3299"></path><path d="M0 192h1024" p-id="3300"></path><path d="M0 213.333333h1024" p-id="3301"></path><path d="M0 234.666667h1024" p-id="3302"></path><path d="M0 256h1024" p-id="3303"></path><path d="M0 277.333333h1024" p-id="3304"></path><path d="M0 298.666667h1024" p-id="3305"></path><path d="M0 320h1024" p-id="3306"></path><path d="M0 341.333333h1024" p-id="3307"></path><path d="M0 362.666667h1024" p-id="3308"></path><path d="M0 384h1024" p-id="3309"></path><path d="M0 405.333333h1024" p-id="3310"></path><path d="M0 426.666667h1024" p-id="3311"></path><path d="M0 448h1024" p-id="3312"></path><path d="M0 469.333333h1024" p-id="3313"></path><path d="M0 490.666667h1024" p-id="3314"></path><path d="M0 512h1024" p-id="3315"></path><path d="M0 533.333333h1024" p-id="3316"></path><path d="M0 554.666667h1024" p-id="3317"></path><path d="M0 576h1024" p-id="3318"></path><path d="M0 597.333333h1024" p-id="3319"></path><path d="M0 618.666667h1024" p-id="3320"></path><path d="M0 640h1024" p-id="3321"></path><path d="M0 661.333333h1024" p-id="3322"></path><path d="M0 682.666667h1024" p-id="3323"></path><path d="M0 704h1024" p-id="3324"></path><path d="M0 725.333333h1024" p-id="3325"></path><path d="M0 746.666667h1024" p-id="3326"></path><path d="M0 768h1024" p-id="3327"></path><path d="M0 789.333333h1024" p-id="3328"></path><path d="M0 810.666667h1024" p-id="3329"></path><path d="M0 832h1024" p-id="3330"></path><path d="M0 853.333333h1024" p-id="3331"></path><path d="M0 874.666667h1024" p-id="3332"></path><path d="M0 896h1024" p-id="3333"></path><path d="M0 917.333333h1024" p-id="3334"></path><path d="M0 938.666667h1024" p-id="3335"></path><path d="M0 960h1024" p-id="3336"></path><path d="M0 981.333333h1024" p-id="3337"></path><path d="M0 1002.666667h1024" p-id="3338"></path><path d="M897.77240494 203.89989136L589.6722963 512l308.10010864 308.10010864-77.6722963 77.6722963L512 589.6722963 203.89989136 897.77240494l-77.6722963-77.6722963L434.3277037 512 126.22759506 203.89989136l77.6722963-77.6722963L512 434.3277037l308.10010864-308.10010864z" p-id="3339"></path></svg>