<?xml version="1.0" standalone="no"?><!DOCTYPE svg PUBLIC "-//W3C//DTD SVG 1.1//EN" "http://www.w3.org/Graphics/SVG/1.1/DTD/svg11.dtd"><svg t="1587045179416" class="icon" viewBox="0 0 1024 1024" version="1.1" xmlns="http://www.w3.org/2000/svg" p-id="2640" xmlns:xlink="http://www.w3.org/1999/xlink" width="48" height="48"><defs><style type="text/css"></style></defs><path d="M918.64177777 847.18933332l-86.12977778-86.12977777c55.40977778-71.68 88.63288889-161.45066667 88.6328889-259.072 0.11377778-234.496-190.00888889-424.61866667-424.61866667-424.61866666C262.03022222 77.36888889 71.90755555 267.49155555 71.90755555 501.98755555 71.90755555 730.22577777 252.13155555 915.9111111 477.86666666 925.69599999c3.072 0.56888889 6.144 0.91022222 9.32977778 0.91022223h398.44977778c41.52888889 0.11377778 62.35022222-50.06222222 32.99555555-79.4168889z m-430.76266667 29.696l-3.86844444-0.79644443-3.98222222-0.22755557C279.09688889 867.10044444 121.74222222 702.9191111 121.74222222 501.98755555c0-206.62044445 168.16355555-374.784 374.784-374.784s374.784 168.16355555 374.784 374.784c0 83.17155555-27.07911111 162.24711111-78.27911112 228.57955555l-26.85155555 34.70222222 31.06133334 31.06133334 80.44088888 80.44088889-389.80266667 0.11377777z" p-id="2641"></path><path d="M668.78577777 389.80266666h-345.88444445c-14.67733333 0-26.624 11.15022222-26.624 24.91733333 0 13.76711111 11.94666667 24.91733333 26.624 24.91733333h345.88444445c14.67733333 0 26.624-11.15022222 26.624-24.91733333 0-13.76711111-11.83288889-24.91733333-26.624-24.91733333zM529.18044444 589.36888889h-216.17777778c-9.216 0-16.61155555 11.15022222-16.61155556 24.91733333s7.39555555 24.91733333 16.61155556 24.91733333h216.17777778c9.216 0 16.61155555-11.15022222 16.61155555-24.91733333s-7.39555555-24.91733333-16.61155555-24.91733333z" p-id="2642"></path></svg>