<?xml version="1.0" standalone="no"?><!DOCTYPE svg PUBLIC "-//W3C//DTD SVG 1.1//EN" "http://www.w3.org/Graphics/SVG/1.1/DTD/svg11.dtd"><svg t="1587045247128" class="icon" viewBox="0 0 1024 1024" version="1.1" xmlns="http://www.w3.org/2000/svg" p-id="2775" xmlns:xlink="http://www.w3.org/1999/xlink" width="48" height="48"><defs><style type="text/css"></style></defs><path d="M725.046875 798.01171874h-36.5625c-9.66796875 0-17.578125-7.91015625-17.578125-17.578125s7.91015625-17.578125 17.578125-17.578125h17.05078125v-0.17578125l18.6328125 0.17578125h0.79101563c106.5234375 0 193.18359375-86.66015625 193.18359374-193.18359375S831.48242188 376.48828124 724.95898438 376.48828124h-1.49414063l-13.44726563 0.08789063-3.60351562-12.91992188C680.92578125 272.33789061 596.81445313 208.61718749 501.89257812 208.61718749c-108.45703125 0-199.24804688 81.2109375-211.11328124 188.7890625l-1.66992188 15.20507813-15.29296875 0.43945312c-95.00976563 2.98828125-169.36523438 79.8046875-169.36523438 174.90234375 0 95.625 78.22265625 174.11132813 174.37500001 174.90234375h57.56835937c9.66796875 0 17.578125 7.91015625 17.578125 17.578125s-7.91015625 17.578125-17.578125 17.578125h-58.62304688c-55.546875-0.61523438-107.66601563-22.67578125-147.04101562-62.05078125C91.09179687 696.23437499 69.29492187 643.67578124 69.29492187 587.95312499c0-54.93164063 21.09375-106.96289063 59.41406251-146.33789063 34.71679688-35.77148438 80.15625-57.65625 129.28710937-62.66601562 9.40429688-54.4921875 36.82617188-104.4140625 78.31054688-141.85546875C381.74609375 196.04882811 440.6328125 173.46093749 501.89257812 173.46093749c55.10742188 0 107.2265625 17.75390625 150.82031251 51.24023438 38.671875 29.79492188 68.02734375 70.83984375 83.67187499 116.80664062 56.68945313 2.72460938 109.6875 26.19140625 150.11718751 66.62109375 43.15429688 43.15429688 66.88476563 100.45898438 66.88476562 161.45507813s-23.73046875 118.38867188-66.88476563 161.45507812C847.12695313 770.50195312 795.88671875 793.70507812 740.77929688 797.48437499v0.52734375h-15.73242188z" p-id="2776"></path><path d="M493.80664062 491.62499999h35.15625001v316.40625h-35.15625z" p-id="2777"></path><path d="M498.9921875 845.29687499l-87.01171875-87.01171875c-6.85546875-6.85546875-6.85546875-18.01757813 0-24.87304688 6.85546875-6.85546875 18.01757813-6.85546875 24.87304688 1e-8l87.01171874 87.01171874c6.85546875 6.85546875 6.85546875 18.01757813 0 24.87304688-6.94335938 6.85546875-18.01757813 6.85546875-24.87304687 0z" p-id="2778"></path><path d="M585.91601563 733.41210937l-87.01171876 87.01171874c-6.85546875 6.85546875-6.85546875 18.01757813 0 24.87304688 6.85546875 6.85546875 18.01757813 6.85546875 24.87304688 0l87.01171875-87.01171875c6.85546875-6.85546875 6.85546875-18.01757813 0-24.87304688-6.85546875-6.85546875-18.01757813-6.85546875-24.87304688 0z" p-id="2779"></path></svg>