<?xml version="1.0" standalone="no"?><!DOCTYPE svg PUBLIC "-//W3C//DTD SVG 1.1//EN" "http://www.w3.org/Graphics/SVG/1.1/DTD/svg11.dtd"><svg t="1589506351503" class="icon" viewBox="0 0 1024 1024" version="1.1" xmlns="http://www.w3.org/2000/svg" p-id="12894" xmlns:xlink="http://www.w3.org/1999/xlink" width="200" height="200"><defs><style type="text/css"></style></defs><path d="M937.6 357.7c-38.5-42.6-88.8-72-144.2-84.4-11.7-53.1-39.6-101.4-80.3-138.5C664.3 90.3 601 65.9 535 65.9c-65.8 0-128.8 24.3-177.5 68.4-39.7 36-67.4 82.7-79.8 134.1-61.7 7-118.8 34.5-163.3 79-51.2 51.2-79.8 119-80.8 191.2-1 74.3 28 146.1 80.5 198.7 41.2 41.3 93.2 68 149.6 77.4 24 4 45.9-14.4 45.9-38.8v-1.4c0-19.3-14-35.6-33-38.8-92.4-15.7-162.9-96.4-162.9-193.2 0-108.1 87.9-196 196-196h1.7l36.3 0.3 3.8-36.1c10-94 88.9-164.9 183.6-164.9 95.3 0 174.3 71.4 183.7 166l3.2 32.3 32.2 3.5c99.4 10.8 174.4 94.6 174.4 194.8 0 96.8-70.6 177.4-162.9 193.2-19.1 3.3-33 20.1-33 39.5 0 24.8 22.3 43.5 46.8 39.4 55.9-9.5 107.4-36 148.4-76.9 52.1-52.1 80.8-121.4 80.8-195.1-0.1-68.4-25.3-134.1-71.1-184.8z" p-id="12895"></path><path d="M557.1 795.1h-72c-2.2 0-4-1.8-4-4V553.8c0-22 18-40 40-40s40 18 40 40v237.3c0 2.2-1.8 4-4 4z" p-id="12896"></path><path d="M498 729.1c11 16.5 35.2 16.5 46.2 0 5.2-7.7 13.8-12.3 23.1-12.3h63c22.2 0 35.4 24.8 23.1 43.2l-96.6 144.5c-9.5 14.3-22.2 22.1-35.7 22.1-13.5 0-26.2-7.9-35.7-22.1L388.8 760c-12.3-18.5 0.9-43.2 23.1-43.2h63c9.3 0 17.9 4.6 23.1 12.3z" p-id="12897"></path></svg>