<?xml version="1.0" standalone="no"?><!DOCTYPE svg PUBLIC "-//W3C//DTD SVG 1.1//EN" "http://www.w3.org/Graphics/SVG/1.1/DTD/svg11.dtd"><svg t="1586598310227" class="icon" viewBox="0 0 1024 1024" version="1.1" xmlns="http://www.w3.org/2000/svg" p-id="1174" xmlns:xlink="http://www.w3.org/1999/xlink" width="48" height="48"><defs><style type="text/css"></style></defs><path d="M926.36087011 336.93554287A449.8945251 449.8945251 0 1 0 961.85254942 511.8945251a443.24608359 443.24608359 0 0 0-35.49167931-174.95898223z m-57.48652265 325.87360049a387.95904492 387.95904492 0 1 1 30.49285167-150.76465401 386.90929161 386.90929161 0 0 1-30.49285167 150.76465401z m-318.92522959-81.63086221a39.99062461 39.99062461 0 0 1-37.99109355 41.44028467 39.99062461 39.99062461 0 0 1-35.49167843-38.89088175l-23.49449208-266.88742997a60.93571377 60.93571377 0 0 1 60.48581924-50.58813955 59.13613565 59.13613565 0 0 1 57.48652265 51.58790508l-20.99507783 263.33826152zM511.95802432 657.56037412a49.98828076 49.98828076 0 1 0 49.98828076 49.98828077 49.98828076 49.98828076 0 0 0-49.98828076-50.13824591z" p-id="1175"></path></svg>