<?xml version="1.0" standalone="no"?><!DOCTYPE svg PUBLIC "-//W3C//DTD SVG 1.1//EN" "http://www.w3.org/Graphics/SVG/1.1/DTD/svg11.dtd"><svg t="1589103456444" class="icon" viewBox="0 0 1024 1024" version="1.1" xmlns="http://www.w3.org/2000/svg" p-id="1801" xmlns:xlink="http://www.w3.org/1999/xlink" width="48" height="48"><defs><style type="text/css"></style></defs><path d="M734.44281796 512.26192582a203.25434618 203.25434618 0 0 0-148.24994844-195.3965754 26.19257055 26.19257055 0 0 0-32.47878715 26.19257054 26.19257055 26.19257055 0 0 0 18.59672482 26.19257055 150.34535422 150.34535422 0 0 1 0 289.42790276 26.19257055 26.19257055 0 0 0-18.59672482 26.19256977 26.19257055 26.19257055 0 0 0 32.47878715 26.19257054 203.25434618 203.25434618 0 0 0 148.24994843-198.80160876zM482.47029141 116.4921875a35.62189547 35.62189547 0 0 0-21.47790808 9.69125075L452.61076093 133.51735816l-84.86392826 69.14838592-120.74774877 99.26984148H138.29991672a52.38514109 52.38514109 0 0 0-52.38514109 52.38514108V663.91690838a52.38514109 52.38514109 0 0 0 52.38514109 52.38514032h101.88909891l123.89085785 101.8890989 85.91163077 70.45801426 11.26280491 9.16739989a35.62189547 35.62189547 0 0 0 21.47790807 9.69125075c9.16739988 0 15.45361651-6.81006826 17.81094735-18.85865064a50.81358616 50.81358616 0 0 0 0-9.69125075V145.30401471a52.38514109 52.38514109 0 0 0 0-11.52473073c-2.88118249-11.26280491-9.4293257-17.28709648-18.07287316-17.28709648zM321.64790897 715.25434618l-62.6002427-52.38514109H138.29991672V354.32072664h127.29589199l60.76676273-49.76588364 122.58122952-100.84139641v616.31118099z" p-id="1802"></path><path d="M639.94340157 99.07284781a31.78807969 31.78807969 0 0 0-45.77483437 28.29139032 31.78807969 31.78807969 0 0 0 18.119205 28.60927218 394.80794719 394.80794719 0 0 1 0 708.87417188 31.78807969 31.78807969 0 0 0-18.119205 28.60927125 31.78807969 31.78807969 0 0 0 45.77483437 28.92715219 458.38410562 458.38410562 0 0 0 0-823.62913875z" p-id="1803"></path></svg>