<?xml version="1.0" standalone="no"?><!DOCTYPE svg PUBLIC "-//W3C//DTD SVG 1.1//EN" "http://www.w3.org/Graphics/SVG/1.1/DTD/svg11.dtd"><svg t="1586239947494" class="icon" viewBox="0 0 1310 1024" version="1.1" xmlns="http://www.w3.org/2000/svg" p-id="844" xmlns:xlink="http://www.w3.org/1999/xlink" width="61.40625" height="48"><defs><style type="text/css"></style></defs><path d="M63.99999999 0m63.735266 0l1067.56571 0q63.73526601 0 63.735267 63.73526601l0 0.66390899q0 63.73526601-63.735267 63.73526701l-1067.56571 0q-63.73526601 0-63.735266-63.73526701l0-0.66390899q0-63.73526601 63.735266-63.73526601Z" p-id="845"></path><path d="M63.99999999 402.992777m63.735266 0l1067.56571 0q63.735266 0 63.735267 63.735267l0 0.663909q0 63.735266-63.735267 63.735266l-1067.56571 0q-63.735266 0-63.735266-63.735266l0-0.663909q0-63.735266 63.735266-63.735267Z" p-id="846"></path><path d="M63.99999999 805.985555m63.735266 0l1067.56571 0q63.73526601 0 63.735267 63.735266l0 0.66390899q0 63.73526601-63.735267 63.73526601l-1067.56571 0q-63.73526601 0-63.735266-63.73526601l0-0.66390899q0-63.73526601 63.735266-63.735266Z" p-id="847"></path></svg>