<?xml version="1.0" standalone="no"?><!DOCTYPE svg PUBLIC "-//W3C//DTD SVG 1.1//EN" "http://www.w3.org/Graphics/SVG/1.1/DTD/svg11.dtd"><svg t="1586333633218" class="icon" viewBox="0 0 1024 1024" version="1.1" xmlns="http://www.w3.org/2000/svg" p-id="1886" xmlns:xlink="http://www.w3.org/1999/xlink" width="48" height="48"><defs><style type="text/css"></style></defs><path d="M158.635 810.04133334c-1.053 26.34 15.786 52.935 47.132 67.043 56.462 25.316 142.933 6.827 244.053-67.527 216.548-159.26 184.036-136.96 240.413-151.979 36.807-9.785 73.13-8.618 112.782 3.812 59.904 18.802 92.473 59.733 100.352 114.915 5.29 37.035 0 73.074-12.771 120.15a28.444 28.444 0 0 1-54.898-14.905c24.889-91.677 17.294-144.84-49.721-165.86-29.554-9.301-54.898-10.097-81.124-3.129-45.369 12.06-18.745-6.172-221.326 142.82-116.224 85.476-223.488 108.43-301.056 73.586-70.03-31.431-100.01-106.582-68.124-169.13a102.884 102.884 0 0 1 14.677-103.482L321.792 414.86333334a303.957 303.957 0 0 0 74.155 120.434 303.957 303.957 0 0 0 119.609 73.898L273.778 801.13733334a103.196 103.196 0 0 1-115.143 8.904zM407.524 154.45333334L776.76 523.71933334c-103.111 83.513-254.749 77.283-350.635-18.603-95.914-95.915-102.115-247.552-18.63-350.663z m40.305-40.107c103.083-82.63 254.01-76.145 349.611 19.456 95.573 95.574 102.059 246.5 19.456 349.583L447.829 114.34633334z" p-id="1887"></path></svg>