<?xml version="1.0" standalone="no"?><!DOCTYPE svg PUBLIC "-//W3C//DTD SVG 1.1//EN" "http://www.w3.org/Graphics/SVG/1.1/DTD/svg11.dtd"><svg t="1589446737833" class="icon" viewBox="0 0 1024 1024" version="1.1" xmlns="http://www.w3.org/2000/svg" p-id="1679" xmlns:xlink="http://www.w3.org/1999/xlink" width="200" height="200"><defs><style type="text/css"></style></defs><path d="M571.4375 92h-69.84375v593.90625C392.9375 636.5 265.71875 702.59375 244.625 800.75c-6.84375 31.96875 7.40625 66.46875 20.53125 82.3125 74.34375 88.6875 236.4375 47.34375 310.875-48.09375 33-42.375 30.28125-79.3125 30.28125-169.96875V301.53125c45.75 34.03125 97.40625 65.71875 115.96875 126.5625 11.4375 37.78125-3.84375 100.59375-15.9375 132.65625-3.65625 9.65625-13.78125 17.71875-9.09375 27.375 32.0625 23.8125 47.90625-26.8125 57.09375-48 9.9375-22.96875 19.5-51.28125 22.875-70.875C813.125 259.625 590.28125 251.65625 571.4375 92z" p-id="1680"></path></svg>