<?xml version="1.0" standalone="no"?><!DOCTYPE svg PUBLIC "-//W3C//DTD SVG 1.1//EN" "http://www.w3.org/Graphics/SVG/1.1/DTD/svg11.dtd"><svg t="1587549266446" class="icon" viewBox="0 0 1024 1024" version="1.1" xmlns="http://www.w3.org/2000/svg" p-id="1770" xmlns:xlink="http://www.w3.org/1999/xlink" width="56" height="56"><defs><style type="text/css"></style></defs><path d="M157.54393491 177.33727004l286.09137295 166.92604075 287.57756277 167.73668921-287.57756277 167.73668921-286.09137295 166.92604075v-669.25790635m-31.75039985-87.21226924a31.81795422 31.81795422 0 0 0-31.88550859 31.81795424v779.97898278a31.75040066 31.75040066 0 0 0 47.8282629 27.494496l333.91963504-194.758307 334.66273077-195.23118439a31.81795422 31.81795422 0 0 0-1e-8-54.988992l-334.66273076-195.23118439-333.91963504-194.82586057a31.6152919 31.6152919 0 0 0-15.94275431-4.32345904z" p-id="1771"></path><path d="M866.45606509 93.90802646m31.81795422 0l0 0q31.81795422 0 31.81795422 31.81795423l0 763.5633511q0 31.81795422-31.81795422 31.81795422l0 0q-31.81795422 0-31.81795422-31.81795422l0-763.5633511q0-31.81795422 31.81795422-31.81795423Z" p-id="1772"></path></svg>