<?xml version="1.0" standalone="no"?><!DOCTYPE svg PUBLIC "-//W3C//DTD SVG 1.1//EN" "http://www.w3.org/Graphics/SVG/1.1/DTD/svg11.dtd"><svg t="1589422036399" class="icon" viewBox="0 0 1024 1024" version="1.1" xmlns="http://www.w3.org/2000/svg" p-id="2607" xmlns:xlink="http://www.w3.org/1999/xlink" width="200" height="200"><defs><style type="text/css"></style></defs><path d="M644 533C710 491 752 416 752 332c0-132-108-240-240-240S272 200 272 332c0 84 42 159 108 201C212 587 92 746 92 932h60c0-198 162-360 360-360s360 162 360 360h60c0-186-120-345-288-399zM512 512c-99 0-180-81-180-180s81-180 180-180 180 81 180 180-81 180-180 180z" p-id="2608"></path></svg>