<?xml version="1.0" standalone="no"?><!DOCTYPE svg PUBLIC "-//W3C//DTD SVG 1.1//EN" "http://www.w3.org/Graphics/SVG/1.1/DTD/svg11.dtd"><svg t="1587046676886" class="icon" viewBox="0 0 1024 1024" version="1.1" xmlns="http://www.w3.org/2000/svg" p-id="2032" xmlns:xlink="http://www.w3.org/1999/xlink" width="48" height="48"><defs><style type="text/css"></style></defs><path d="M515.6928125 63.415625c-247.749375-2.02125001-450.2765625 197.1309375-452.2884375 444.879375-2.030625 247.749375 197.131875 450.2184375 444.8821875 452.2875 247.7484375 2.02125001 450.2175-197.131875 452.30625-444.879375 2.0728125-247.7484375-197.150625-450.2175-444.9-452.2875zM917.6028125 515.36374999c-1.8525 223.95375001-184.9659375 404.0915625-408.97875 402.23718751-224.0146875-1.850625-404.14125001-184.9565625-402.2896875-408.9675 1.9125-223.95375001 184.94624999-404.08875001 408.97875-402.23718749 224.0146875 1.8515625 404.14125001 184.955625 402.2896875 408.9675zM687.5759375 499.4853125l-244.38468751-202.02c-11.608125-9.64874999-29.2303125-1.455-29.35031249 13.69875l-0.2784375 400.0978125c-0.1003125 15.045 14.3165625 23.51624999 26.10375001 14.0878125l247.68937499-198.0290625c8.86124999-7.126875 8.9803125-20.596875 0.2184375-27.8353125z" p-id="2033"></path></svg>