<?xml version="1.0" standalone="no"?><!DOCTYPE svg PUBLIC "-//W3C//DTD SVG 1.1//EN" "http://www.w3.org/Graphics/SVG/1.1/DTD/svg11.dtd"><svg t="1587611354333" class="icon" viewBox="0 0 1024 1024" version="1.1" xmlns="http://www.w3.org/2000/svg" p-id="1773" xmlns:xlink="http://www.w3.org/1999/xlink" width="56" height="56"><defs><style type="text/css"></style></defs><path d="M396.561067 674.429867c0.091733-0.181333 0.113067-0.023467 0.2048-0.296534-0.16-0.546133-0.2496-0.477867-0.3648-0.6592l0.16 0.955734z" fill="#1296DB" p-id="1774"></path><path d="M512 79.643733C273.226667 79.643733 79.643733 273.226667 79.643733 512S273.226667 944.356267 512 944.356267 944.356267 750.773333 944.356267 512 750.773333 79.643733 512 79.643733z m0 819.2c-213.6512 0-386.843733-173.192533-386.843733-386.843733S298.3488 125.156267 512 125.156267 898.843733 298.3488 898.843733 512 725.6512 898.843733 512 898.843733z" fill="" p-id="1775"></path><path d="M440.356267 677.4592c0 12.567467-10.1888 22.756267-22.756267 22.756267s-22.756267-10.1888-22.756267-22.756267V346.5408c0-12.567467 10.1888-22.756267 22.756267-22.756267s22.756267 10.1888 22.756267 22.756267v330.9184zM629.156267 677.4592c0 12.567467-10.1888 22.756267-22.756267 22.756267s-22.756267-10.1888-22.756267-22.756267V346.5408c0-12.567467 10.1888-22.756267 22.756267-22.756267s22.756267 10.1888 22.756267 22.756267v330.9184z" fill="" p-id="1776"></path></svg>