<?xml version="1.0" standalone="no"?><!DOCTYPE svg PUBLIC "-//W3C//DTD SVG 1.1//EN" "http://www.w3.org/Graphics/SVG/1.1/DTD/svg11.dtd"><svg t="1586332469318" class="icon" viewBox="0 0 1024 1024" version="1.1" xmlns="http://www.w3.org/2000/svg" p-id="2109" xmlns:xlink="http://www.w3.org/1999/xlink" width="48" height="48"><defs><style type="text/css"></style></defs><path d="M801.97657244 305.34188207a31.06891852 31.06891852 0 0 1 14.75773629 3.72827023l144.98828682 78.3454566a31.06891852 31.06891852 0 0 1 16.31118223 27.34064829v68.24805809a10.35630577 10.35630577 0 0 1-15.01664355 9.32067556L874.47071645 448.00000001v362.47071645c0 71.45851259-69.54259555 129.45382756-155.34459259 129.45382636s-155.34459259-57.99531498-155.34459259-129.45382636 69.54259555-129.45382756 155.34459259-129.45382756c18.17531733 0 35.62569364 2.58907614 51.83331199 7.4047585L770.90765392 336.4108006a31.06891852 31.06891852 0 0 1 31.06891852-31.06891853zM420.34669037 706.90765393c13.87745068 0 18.90025836 1.44988327 23.97484919 4.14252327a28.22093392 28.22093392 0 0 1 11.75440711 11.75440711c2.69264001 5.07458962 4.14252206 10.09739852 4.14252206 23.92306725v23.92306727c0 13.82566875-1.44988327 18.84847764-4.14252206 23.92306726a28.22093392 28.22093392 0 0 1-11.75440711 11.75440709c-5.07458962 2.69264001-10.09739852 4.14252206-23.92306725 4.14252328H85.78621986c-13.82566875 0-18.84847764-1.44988327-23.92306725-4.14252328a28.22093392 28.22093392 0 0 1-11.75440832-11.75440709c-2.69264001-5.07458962-4.14252206-10.09739852-4.14252207-23.92306726v-23.92306727c0-13.82566875 1.44988327-18.84847764 4.14252207-23.92306725a28.22093392 28.22093392 0 0 1 11.75440832-11.75440711c5.07458962-2.69264001 10.09739852-4.14252206 23.92306725-4.14252327h334.61225245z m207.12612386-310.68918519c13.87745068 0 18.90025836 1.44988327 23.97484799 4.14252328a28.22093392 28.22093392 0 0 1 11.75440831 11.7544071c2.69264001 5.07458962 4.14252206 10.09739852 4.14252206 23.92306726v23.92306726c0 13.82566875-1.44988327 18.84847764-4.14252206 23.92306726a28.22093392 28.22093392 0 0 1-11.75440831 11.7544071c-5.07458962 2.69264001-10.09739852 4.14252206-23.92306727 4.14252328H85.78621986c-13.82566875 0-18.84847764-1.44988327-23.92306725-4.14252328a28.22093392 28.22093392 0 0 1-11.75440832-11.7544071c-2.69264001-5.07458962-4.14252206-10.09739852-4.14252207-23.92306726v-23.92306726c0-13.82566875 1.44988327-18.84847764 4.14252207-23.92306726a28.22093392 28.22093392 0 0 1 11.75440832-11.7544071c5.07458962-2.69264001 10.09739852-4.14252206 23.92306725-4.14252328h541.73837509z m207.12612266-310.68918518c13.87745068 0 18.90025836 1.44988327 23.97484919 4.14252328a28.22093392 28.22093392 0 0 1 11.75440709 11.75440709c2.69264001 5.07458962 4.14252206 10.09739852 4.14252328 23.92306726v23.92306727c0 13.82566875-1.44988327 18.84847764-4.14252328 23.92306725a28.22093392 28.22093392 0 0 1-11.75440709 11.75440711c-5.07458962 2.69264001-10.09739852 4.14252206-23.92306726 4.14252327H85.78621986c-13.82566875 0-18.84847764-1.44988327-23.92306725-4.14252327a28.22093392 28.22093392 0 0 1-11.75440832-11.75440711C47.41610549 168.12082609 45.96622222 163.09801719 45.96622222 149.27234846v-23.92306727c0-13.82566875 1.44988327-18.84847764 4.14252207-23.92306726a28.22093392 28.22093392 0 0 1 11.75440832-11.75440709c5.07458962-2.69264001 10.09739852-4.14252206 23.92306725-4.14252328h748.86449896z" p-id="2110"></path></svg>