<?xml version="1.0" standalone="no"?><!DOCTYPE svg PUBLIC "-//W3C//DTD SVG 1.1//EN" "http://www.w3.org/Graphics/SVG/1.1/DTD/svg11.dtd"><svg t="1587549270764" class="icon" viewBox="0 0 1024 1024" version="1.1" xmlns="http://www.w3.org/2000/svg" p-id="1908" xmlns:xlink="http://www.w3.org/1999/xlink" width="56" height="56"><defs><style type="text/css"></style></defs><path d="M866.45606509 846.66272996l-286.09137295-166.92604075-287.57756278-167.73668921 287.57756278-167.73668921 286.09137295-166.92604075 0 669.25790635m31.75039985 87.21226924a31.81795422 31.81795422 0 0 0 31.88550859-31.81795424l0-779.97898278a31.75040066 31.75040066 0 0 0-47.82826291-27.494496l-333.91963503 194.758307-334.66273077 195.23118439a31.81795422 31.81795422 0 0 0 1e-8 54.988992l334.66273076 195.23118439 333.91963504 194.82586057a31.6152919 31.6152919 0 0 0 15.94275431 4.32345904z" p-id="1909"></path><path d="M157.54393491 930.09197354m-31.81795422 0l0 0q-31.81795422 0-31.81795422-31.81795423l0-763.5633511q0-31.81795422 31.81795422-31.81795422l0 0q31.81795422 0 31.81795422 31.81795422l0 763.5633511q0 31.81795422-31.81795422 31.81795423Z" p-id="1910"></path></svg>