<?xml version="1.0" standalone="no"?><!DOCTYPE svg PUBLIC "-//W3C//DTD SVG 1.1//EN" "http://www.w3.org/Graphics/SVG/1.1/DTD/svg11.dtd"><svg t="1586333733198" class="icon" viewBox="0 0 1024 1024" version="1.1" xmlns="http://www.w3.org/2000/svg" p-id="1480" xmlns:xlink="http://www.w3.org/1999/xlink" width="48" height="48"><defs><style type="text/css"></style></defs><path d="M564.309333 896h-104.618666a49.066667 49.066667 0 0 1-48.896-48.896V176.896c0-26.88 22.016-48.896 48.896-48.896h104.618666a49.066667 49.066667 0 0 1 48.896 48.896v670.208A49.066667 49.066667 0 0 1 564.309333 896m289.92 0h-104.618666a49.066667 49.066667 0 0 1-48.896-48.896v-320.682667c0-26.88 22.016-48.896 48.896-48.896h104.618666c26.88 0 48.853333 22.016 48.853334 48.896v320.682667c0 26.88-21.973333 48.896-48.853334 48.896M274.346667 896H169.813333a49.066667 49.066667 0 0 1-48.896-48.896V381.696c0-26.88 22.016-48.853333 48.896-48.853333h104.618667c26.88 0 48.896 21.973333 48.896 48.853333v465.408A49.066667 49.066667 0 0 1 274.432 896" p-id="1481"></path></svg>