<?xml version="1.0" standalone="no"?><!DOCTYPE svg PUBLIC "-//W3C//DTD SVG 1.1//EN" "http://www.w3.org/Graphics/SVG/1.1/DTD/svg11.dtd"><svg t="1586240336188" class="icon" viewBox="0 0 1024 1024" version="1.1" xmlns="http://www.w3.org/2000/svg" p-id="1260" xmlns:xlink="http://www.w3.org/1999/xlink" width="48" height="48"><defs><style type="text/css"></style></defs><path d="M944.01472587 883.50970007l-176.79457393-173.31485506a374.6663022 374.6663022 0 0 0 106.10657052-260.78007447c-3.18145726-211.81545889-176.59573285-381.47660914-388.43604689-380.05986645-211.98944483-1.59072863-385.55285125 168.09527675-388.7343085 380.08472158 3.00747131 212.08886538 176.620588 381.99856697 388.75916365 380.3829832a391.04583604 391.04583604 0 0 0 206.09877787-58.53384248l183.28176413 179.42921823 70.96140989-65.76668672c-0.44739243-0.47224756-0.77050917-0.99420539-1.24275674-1.44159783z m-253.67150592-233.11630942c-114.48275095 111.00303209-296.44719294 111.00303209-410.92994389 0a279.81910774 279.81910774 0 0 1 0-401.90752996c114.48275095-111.00303209 296.44719294-111.00303209 410.92994389 0a280.36592071 280.36592071 0 0 1 0 401.90752996z" fill="" p-id="1261"></path></svg>