<?xml version="1.0" standalone="no"?><!DOCTYPE svg PUBLIC "-//W3C//DTD SVG 1.1//EN" "http://www.w3.org/Graphics/SVG/1.1/DTD/svg11.dtd"><svg t="1587045554410" class="icon" viewBox="0 0 1024 1024" version="1.1" xmlns="http://www.w3.org/2000/svg" p-id="3047" xmlns:xlink="http://www.w3.org/1999/xlink" width="48" height="48"><defs><style type="text/css"></style></defs><path d="M761.46875001 643.53125001c-65.4375 0-122.4375 36.09375001-152.25000002 89.43749998L394.0625 617.84375001c15.1875-25.875 23.90625001-55.96875001 23.90625001-88.12500002 0-23.25-4.59375001-45.46875001-12.84375001-65.71874999l237.46875001-151.03125001c31.875 41.0625 81.65625001 67.5 137.71874999 67.50000002 96.1875 0 174.1875-78 174.1875-174.18750002C954.5 110 876.40625001 32 780.21875001 32 684.03125001 32 606.03125001 110 606.03125001 206.28124999c0 22.40625001 4.21875001 43.78125001 11.90624999 63.46875001L379.90624999 421.0625c-31.96875001-39.9375-81-65.53125001-136.12499998-65.53125001C147.5 355.53124999 69.5 433.53124999 69.5 529.71875001s78 174.1875 174.1875 174.18749998c45.84375001 0 87.46875001-17.71875001 118.59375001-46.59374999l229.03124999 122.53125001c-2.71875001 12.1875-4.125 24.84375001-4.125 37.87499998 0 96.28125001 78 174.28125001 174.1875 174.28125001 96.1875 0 174.1875-78 174.1875-174.28125001 0.1875-96.1875-77.8125-174.1875-174.09375001-174.18749998z m18.93749998-556.96875001c66.09375001 0 119.625 53.53125001 119.62500002 119.625s-53.53125001 119.625-119.625 119.625-119.625-53.53125001-119.625-119.625c0-66 53.53125001-119.625 119.625-119.625zM243.875 649.34375001c-66.09375001 0-119.625-53.53125001-119.625-119.62500002S177.78124999 410.09374999 243.875 410.09374999s119.625 53.53125001 119.625 119.62500002S309.96874999 649.34375001 243.875 649.34375001z m517.78125001 287.99999998c-66.09375001 0-119.625-53.53125001-119.62500002-119.62499998s53.53125001-119.625 119.625-119.625 119.625 53.53125001 119.625 119.625-53.625 119.625-119.625 119.625z" p-id="3048"></path></svg>