<?xml version="1.0" standalone="no"?><!DOCTYPE svg PUBLIC "-//W3C//DTD SVG 1.1//EN" "http://www.w3.org/Graphics/SVG/1.1/DTD/svg11.dtd"><svg t="1586332321781" class="icon" viewBox="0 0 1024 1024" version="1.1" xmlns="http://www.w3.org/2000/svg" p-id="1832" xmlns:xlink="http://www.w3.org/1999/xlink" width="48" height="48"><defs><style type="text/css"></style></defs><path d="M640.64 788c-14.88-1.92-26.4-14.4-26.4-29.76v-75.84c0-9.6 4.8-18.72 12.48-24.48 49.44-36 93.12-93.6 117.12-158.4 2.88-8.64 10.08-14.88 18.24-18.24 9.12-3.36 20.16-22.56 30.24-66.24 5.76-23.52-0.96-38.4-15.36-47.04-8.16-4.8-13.44-13.44-14.4-23.04-12.96-143.04-93.6-222.72-221.28-222.72-129.6 0-213.6 82.56-225.6 227.04-0.96 9.6-6.24 18.24-13.92 23.04-15.36 9.6-21.12 22.08-15.36 41.28 10.56 36.48 22.56 56.64 34.56 64.32 5.76 3.36 10.08 9.12 12.48 15.36 23.52 66.24 67.68 125.28 119.04 162.72 7.68 5.76 12.48 14.4 12 24v78.24c0 15.36-11.52 27.84-26.4 29.76-118.08 13.44-199.68 50.88-212.64 83.04 1.92 0.96 4.8 1.92 7.68 2.88 16.32 5.76 40.8 11.04 72.48 14.88 61.44 8.16 145.44 12.96 233.28 12.96s171.84-4.8 233.28-12.96c31.68-4.32 56.16-9.6 72.48-14.88 2.88-0.96 5.76-1.92 7.68-2.88-12.48-32.16-94.56-69.6-211.68-83.04z m33.12-56.16c142.08 21.12 240 74.4 240 147.36 0 62.88-146.4 82.56-374.88 82.56s-374.88-19.68-374.88-82.56c0-73.44 97.92-126.24 240-147.36v-36.96c-53.28-42.72-97.92-104.16-124.32-172.8-22.56-18.24-38.4-48-51.36-91.68-12-40.8 0-76.32 28.32-99.84 19.2-166.56 126.72-268.32 284.16-268.32 155.04 0 259.68 98.88 279.36 264 27.84 23.52 39.84 60 29.76 103.2-12.48 53.28-28.8 86.88-55.2 102.72-26.88 66.24-70.08 124.8-121.44 165.6l0.48 34.08z" p-id="1833"></path></svg>