<?xml version="1.0" standalone="no"?><!DOCTYPE svg PUBLIC "-//W3C//DTD SVG 1.1//EN" "http://www.w3.org/Graphics/SVG/1.1/DTD/svg11.dtd"><svg t="1588065726640" class="icon" viewBox="0 0 1024 1024" version="1.1" xmlns="http://www.w3.org/2000/svg" p-id="1773" xmlns:xlink="http://www.w3.org/1999/xlink" width="48" height="48"><defs><style type="text/css"></style></defs><path d="M126.7026708 618.55102373a21.374158 21.374158 0 0 1-21.43040625-21.37415889V329.60615029c0-79.30937724 64.45996172-139.1570209 149.90034814-139.15702089H854.54901231a21.374158 21.374158 0 0 1-1e-8 42.80456513H255.1726127c-62.04130752 0-107.03953565 40.49840567-107.03953565 96.35245576v267.51446719a21.374158 21.374158 0 0 1-21.43040625 21.43040625zM768.8273873 832.63009414H148.13307705a21.374158 21.374158 0 1 1 0-42.8608125h620.69431025c56.07904219 0 107.03953565-56.02279394 107.03953565-117.72661465V425.95860693a21.374158 21.374158 0 1 1 42.80456426 0v246.1403083c0 85.55288115-69.97224463 160.53117891-149.84409991 160.53117891z" p-id="1774"></path><path d="M768.8273873 361.66738818a21.374158 21.374158 0 0 1-15.1306541-36.56106035l105.68958838-105.68958838a10.51833604 10.51833604 0 0 0 3.14987608-7.59345117 10.68707901 10.68707901 0 0 0-3.14987608-7.64969854L753.6967332 98.48400137c-8.32467217-8.32467217-8.32467217-21.93663604 0-30.26130908s21.93663604-8.32467217 30.26130821 0l105.68958838 105.68958838c10.18084922 10.12460098 15.63688388 23.56782187 15.63688476 37.91100761a53.04166172 53.04166172 0 0 1-15.63688476 37.85475938l-105.68958838 105.68958838a20.69918526 20.69918526 0 0 1-15.13065411 6.29975214zM255.1726127 961.10003516a21.20541504 21.20541504 0 0 1-15.18690234-6.35599951l-105.68958839-105.68958838a53.54789151 53.54789151 0 0 1 0-75.76576699l105.68958839-105.68958838a21.48665362 21.48665362 0 0 1 30.31755644 30.3738038l-105.63334102 105.63334102a10.68707901 10.68707901 0 0 0 0 15.24314971l105.63334102 105.68958838a21.2616624 21.2616624 0 0 1 0 30.20506084 21.374158 21.374158 0 0 1-15.1306541 6.35599951z" p-id="1775"></path></svg>