<?xml version="1.0" standalone="no"?><!DOCTYPE svg PUBLIC "-//W3C//DTD SVG 1.1//EN" "http://www.w3.org/Graphics/SVG/1.1/DTD/svg11.dtd"><svg t="1588065944309" class="icon" viewBox="0 0 1024 1024" version="1.1" xmlns="http://www.w3.org/2000/svg" p-id="2055" xmlns:xlink="http://www.w3.org/1999/xlink" width="48" height="48"><defs><style type="text/css"></style></defs><path d="M795.19288889 330.18311111h97.28c25.48622222 0 38.68444445-30.49244445 21.16266666-49.03822222l-81.92-87.15377778c-11.03644445-11.71911111-29.46844445-12.288-41.18755555-1.25155556-11.71911111 11.03644445-12.288 29.46844445-1.25155555 41.18755556l35.72622222 38.00177778h-29.92355556C691.76888889 271.92888889 624.52622222 329.27288889 486.96888889 495.50222222l-10.01244444 12.06044445c-116.05333333 140.06044445-175.90044445 190.35022222-248.94577778 190.35022222h-96.71111112c-16.04266667 0-29.12711111 13.08444445-29.1271111 29.12711111s13.08444445 29.12711111 29.1271111 29.12711111h96.71111112c98.07644445 0 165.66044445-56.88888889 293.888-211.51288889l10.01244444-12.06044444c125.26933333-151.21066667 185.23022222-202.41066667 263.28177778-202.41066667z" p-id="2056"></path><path d="M892.58666667 695.63733333H795.30666667c-60.52977778 0-119.12533333-38.22933333-192.512-118.67022222-10.12622222-11.03644445-27.30666667-11.83288889-38.45688889-1.70666666-11.03644445 10.12622222-11.83288889 27.30666667-1.70666667 38.45688888 82.83022222 90.68088889 152.80355555 136.41955555 232.67555556 136.41955556h35.49866666l-40.16355555 43.80444444c-10.12622222 11.03644445-9.44355555 28.21688889 1.59288889 38.45688889 11.03644445 10.12622222 28.21688889 9.44355555 38.45688888-1.59288889l82.03377778-89.31555555c15.81511111-17.74933333 3.52711111-45.85244445-20.13866666-45.85244445zM131.41333333 325.97333333h96.71111112c58.59555555 0 115.93955555 38.79822222 190.35022222 121.62844445 10.69511111 11.94666667 29.12711111 12.97066667 41.07377778 2.27555555s12.97066667-29.12711111 2.27555555-41.07377778c-84.53688889-94.208-153.71377778-140.97066667-233.69955555-140.97066666h-96.71111112c-16.04266667 0-29.12711111 13.08444445-29.12711111 29.12711111 0 16.04266667 12.97066667 29.01333333 29.12711111 29.01333333z" p-id="2057"></path></svg>