<?xml version="1.0" standalone="no"?><!DOCTYPE svg PUBLIC "-//W3C//DTD SVG 1.1//EN" "http://www.w3.org/Graphics/SVG/1.1/DTD/svg11.dtd"><svg t="1588230891886" class="icon" viewBox="0 0 1024 1024" version="1.1" xmlns="http://www.w3.org/2000/svg" p-id="3746" xmlns:xlink="http://www.w3.org/1999/xlink" width="48" height="48"><defs><style type="text/css"></style></defs><path d="M425.75 201.6875m45 0l382.5 0q45 0 45 45l0 0q0 45-45 45l-382.5 0q-45 0-45-45l0 0q0-45 45-45Z" p-id="3747"></path><path d="M126.6875 512m45 0l681.5625 0q45 0 45 45l0 0q0 45-45 45l-681.5625 0q-45 0-45-45l0 0q0-45 45-45Z" p-id="3748"></path><path d="M126.6875 801.91666667m45 0l681.5625 0q45 0 45 45l0 0q0 45-45 45l-681.5625 0q-45 0-45-45l0 0q0-45 45-45Z" p-id="3749"></path><path d="M332.391875 214.945625c28.2346875 17.5303125 28.2196875 45.961875 0 63.4828125L177.8140625 374.3984375C149.5765625 391.9296875 126.6875 380.515625 126.6875 348.944375V144.4325C126.6875 112.8425 149.5925 101.45375 177.8121875 118.9746875l154.5796875 95.971875z" p-id="3750"></path></svg>