<?xml version="1.0" standalone="no"?><!DOCTYPE svg PUBLIC "-//W3C//DTD SVG 1.1//EN" "http://www.w3.org/Graphics/SVG/1.1/DTD/svg11.dtd"><svg t="1587613074763" class="icon" viewBox="0 0 1024 1024" version="1.1" xmlns="http://www.w3.org/2000/svg" p-id="1773" xmlns:xlink="http://www.w3.org/1999/xlink" width="56" height="56"><defs><style type="text/css"></style></defs><path d="M953.86906294 429.14955061v220.93453212a165.70089876 165.70089876 0 0 1-165.70089876 165.70089877H401.53273459v-55.23363335h386.63542959a110.46726541 110.46726541 0 0 0 110.4672667-110.46726542v-220.93453212h55.23363206z m-331.40179753-220.93453211v55.23363335H235.83183582a110.46726541 110.46726541 0 0 0-110.4672667 110.46726542v248.55134814H70.13093706v-248.55134814a165.70089876 165.70089876 0 0 1 165.70089876-165.70089877h386.63542959z" p-id="1774"></path><path d="M926.25224691 429.14955061m-27.61681603 0a27.61681602 27.61681602 0 1 0 55.23363206 0 27.61681602 27.61681602 0 1 0-55.23363206 0Z" p-id="1775"></path><path d="M97.74775309 622.46726541m-27.61681603 0a27.61681602 27.61681602 0 1 0 55.23363206 0 27.61681602 27.61681602 0 1 0-55.23363206 0Z" p-id="1776"></path><path d="M663.61632237 134.69905351l136.97940921 77.05091792a27.61681602 27.61681602 0 0 1 0 48.16372748l-136.97940921 77.05091793A27.61681602 27.61681602 0 0 1 622.46726541 312.88275375v-154.10183585a27.61681602 27.61681602 0 0 1 41.14905696-24.08186439zM360.38367763 889.30094649l-136.97940921-77.05091792a27.61681602 27.61681602 0 0 1 0-48.16372748l136.97940921-77.05091793a27.61681602 27.61681602 0 0 1 41.14905696 24.08186309v154.10183585a27.61681602 27.61681602 0 0 1-41.14905696 24.08186439z" p-id="1777"></path><path d="M410.92245175 431.02749457v-26.04265878c24.5513494-2.40266303 41.64615966-6.37948461 51.36727862-11.98569749 9.6658862-5.60621417 16.90149168-18.86228607 21.67920135-39.74059931h26.81592793V622.46726541h-36.23326276v-191.43977084H410.92245175z" p-id="1778"></path></svg>