<?xml version="1.0" standalone="no"?><!DOCTYPE svg PUBLIC "-//W3C//DTD SVG 1.1//EN" "http://www.w3.org/Graphics/SVG/1.1/DTD/svg11.dtd"><svg t="1586333639277" class="icon" viewBox="0 0 1024 1024" version="1.1" xmlns="http://www.w3.org/2000/svg" p-id="2020" xmlns:xlink="http://www.w3.org/1999/xlink" width="48" height="48"><defs><style type="text/css"></style></defs><path d="M899.33386625 721.01333375a453.33333375 453.33333375 0 1 0-780.96-10.66666687 30.24 30.24 0 0 0 52.48000031-30.08000063 392.90666625 392.90666625 0 1 1 676.90666688 9.22666687 30.24 30.24 0 0 0 51.57333281 31.46666719z m-154.93333313-107.57333344a271.99999969 271.99999969 0 1 0-468.58666687-6.40000031 30.24 30.24 0 0 0 52.48000031-30.07999969 211.57333313 211.57333313 0 1 1 364.53333375 4.95999938 30.24 30.24 0 1 0 51.57333281 31.46666719z m-145.86666656-90.82666687l-9.33333281 316.96000031a30.40000031 30.40000031 0 0 1-0.85333406 6.18666656c0.53333344 4.15999969 0.79999969 8.37333375 0.80000062 12.63999938 0 67.73333344-65.86666688 119.30666625-144 119.30666718-78.07999969 0-143.89333312-51.57333375-143.89333406-119.30666718s65.81333344-119.25333375 143.9466675-119.25333282c31.84000031 0 61.65333375 8.53333312 85.81333312 23.30666625L538.69386688 501.01333344a30.24 30.24 0 0 1 16.31999999-25.97333344 30.07999969 30.07999969 0 0 1 11.94666657-5.86666688c3.19999969-0.79999969 26.66666625-8.69333344 36.58666687-11.46666656 12.69333375-3.46666688 26.18666625-6.34666687 41.70666656-8.64a30.24 30.24 0 1 1 8.79999938 59.78666719c-13.01333344 1.92-24.10666688 4.26666656-34.45333313 7.14666656-3.94666688 1.06666687-12.74666625 3.94666688-21.06666656 6.61333313z" p-id="2021"></path></svg>