<?xml version="1.0" standalone="no"?><!DOCTYPE svg PUBLIC "-//W3C//DTD SVG 1.1//EN" "http://www.w3.org/Graphics/SVG/1.1/DTD/svg11.dtd"><svg t="1588044923110" class="icon" viewBox="0 0 1024 1024" version="1.1" xmlns="http://www.w3.org/2000/svg" p-id="3749" xmlns:xlink="http://www.w3.org/1999/xlink" width="48" height="48"><defs><style type="text/css"></style></defs><path d="M515.46201172 91.45214844c-232.26503906-1.89492188-422.13427734 184.81025391-424.02041016 417.07441406-1.90371094 232.26503906 184.81113281 422.07978516 417.07705078 424.01953125 232.26416016 1.89492188 422.07890625-184.81113281 424.03710938-417.07441406 1.94326172-232.26416016-184.82871094-422.07890625-417.09375-424.01953125zM892.25263673 515.15351562c-1.73671875 209.95664063-173.40556641 378.83583984-383.41757814 377.09736329-210.01376953-1.73496094-378.88242188-173.39677734-377.14658202-383.40703125 1.79296875-209.95664063 173.38710937-378.83320313 383.41757812-377.09736328 210.01376953 1.73583984 378.88242188 173.39589844 377.14658204 383.40703125zM676.60244141 500.26748047l-229.11064454-189.39375c-10.88261719-9.04570311-27.40341797-1.3640625-27.51591796 12.84257812l-0.26103516 375.09169922c-0.09404297 14.1046875 13.42177734 22.04648437 24.47226563 13.20732422l232.20878906-185.65224609c8.30742187-6.68144531 8.41904297-19.30957031 0.20478515-26.09560547z" p-id="3750"></path></svg>