<?xml version="1.0" standalone="no"?><!DOCTYPE svg PUBLIC "-//W3C//DTD SVG 1.1//EN" "http://www.w3.org/Graphics/SVG/1.1/DTD/svg11.dtd"><svg t="1587048453262" class="icon" viewBox="0 0 1024 1024" version="1.1" xmlns="http://www.w3.org/2000/svg" p-id="22512" xmlns:xlink="http://www.w3.org/1999/xlink" width="48" height="48"><defs><style type="text/css"></style></defs><path d="M800.256 128H224.256c-89.6 0-160.256 70.656-160.256 160.256v448c0 89.6 70.144 160.256 160.256 160.256h576c89.6 0 160.256-70.656 160.256-160.256V288.256c-0.512-89.6-70.656-160.256-160.256-160.256zM896 736.256c0 54.272-41.472 96.256-96.256 96.256H224.256c-54.272 0-96.256-41.472-96.256-96.256V288.256c0-54.272 41.472-96.256 96.256-96.256h576c54.272 0 96.256 41.472 96.256 96.256v448z" p-id="22513"></path><path d="M685.056 483.328l-256-112.128c-22.528-9.728-45.056 6.656-45.056 28.672v224.256c0 22.528 22.528 38.4 45.056 28.672l256-112.128c25.6-9.216 25.6-47.616 0-57.344z" p-id="22514"></path></svg>